<svg width="300" height="394" viewBox="0 0 300 394" fill="none" xmlns="http://www.w3.org/2000/svg">
<g clip-path="url(#clip0_1_1361)">
<path d="M322.764 515.404C257.431 524.694 187.882 484.963 148.925 416.093C147.128 412.919 145.317 409.36 145.493 405.512C145.957 395.064 158.749 394.657 163.478 386.237C170.31 374.073 156.331 359.426 144.725 355.049C128.792 349.034 111.122 344.684 99.983 328.873C85.7408 308.629 88.0658 277.937 94.5084 252.875C100.951 227.814 110.719 202.891 108.501 176.343C106.754 155.659 100.446 127.668 115.448 119.848C124.563 115.103 134.901 123.19 142.279 132.028C166.076 160.537 181.287 201.36 210.086 220.964C230.502 234.859 254.768 235.772 275.828 247.974C299.379 261.619 316.943 288.279 329.976 316.61C341.277 341.115 349.989 368.343 350.355 396.306C350.721 424.269 341.666 453.068 323.39 468.116" fill="#194429"/>
<path d="M160.435 689.476C195.796 657.676 226.193 618.596 250.219 574.048C263.79 548.858 275.23 522.109 286.128 495.126C293.845 476.046 301.376 456.643 305.419 435.998C309.161 416.934 309.856 397.213 310.088 377.621C310.486 344.484 309.625 311.376 307.503 278.299C304.988 239.002 300.422 198.854 284.924 164.129C279.649 152.3 272.15 140.404 261.243 137.43C245.592 133.153 231.206 148.925 222.226 164.915C209.419 187.748 200.865 213.528 192.769 239.264C165.289 326.651 141.645 418.761 147.953 511.823" fill="#198C36"/>
<path d="M231.957 501.158C238.95 478.992 245.015 456.444 250.15 433.514C255.285 410.583 259.453 387.378 262.655 363.898C265.885 340.507 268.151 316.974 269.454 293.297C270.757 269.62 271.085 245.934 270.436 222.239C269.783 198.497 268.148 174.783 265.531 151.231C265.223 148.301 264.883 145.37 264.512 142.437C264.049 138.722 259.334 140.087 259.784 143.779C262.615 167.071 264.47 190.519 265.342 214.035C266.206 237.515 266.107 261.006 265.045 284.509C263.98 308.055 261.959 331.515 258.982 354.887C256.024 378.07 252.115 401.038 247.255 423.79C242.395 446.542 236.607 468.988 229.891 491.128C229.048 493.909 228.188 496.693 227.311 499.481C226.195 502.973 230.85 504.65 231.957 501.158Z" fill="#153A23"/>
<path d="M270.27 223.453C273.674 210.855 274.137 207.926 279.301 196.264C279.908 194.877 286.93 179.929 285.758 179.066C284.706 178.281 278.63 187.687 278.014 189.091C272.66 201.181 269.149 208.7 265.619 221.76C264.656 225.307 269.302 227.001 270.27 223.453Z" fill="#153A23"/>
<path d="M269.561 295.502C273.132 278.544 274.656 272.111 280.214 256.016C280.714 254.563 288.319 237.688 287.161 237.259C285.804 236.763 281.631 243.853 280.899 245.167C268.329 267.673 268.468 276.845 264.892 293.804C264.137 297.435 268.778 299.145 269.561 295.502Z" fill="#153A23"/>
<path d="M264.897 346.427C270.096 326.447 276.125 306.793 282.96 287.538C284.878 282.136 284.813 282.097 286.865 276.762C287.416 275.336 290.672 264.821 289.468 263.925C288.453 263.173 282.298 274.985 281.742 276.422C274.332 295.742 270.723 307.42 264.948 327.536C263.314 333.239 261.747 338.968 260.247 344.723C259.311 348.315 263.966 350.014 264.897 346.427Z" fill="#153A23"/>
<path d="M257.736 391.243C267.597 376.841 279.635 355.333 286.73 338.748C297.981 312.416 286.045 327.609 282.599 335.685C275.693 351.835 266.416 366.343 256.829 380.35C255.99 381.564 255.763 383.235 256.741 384.471C257.56 385.501 256.24 389.094 257.079 387.868L257.741 391.243H257.736Z" fill="#153A23"/>
<path d="M211.707 413.977C154.78 428.958 92.8457 413.849 45.2186 373.372C25.9834 357.026 8.16556 334.76 4.37689 306.758C3.95078 303.583 3.80256 299.986 5.51164 297.513C6.94744 295.463 9.26326 294.739 11.4262 294.238C62.1704 282.353 112.215 318.915 149.486 362.127C140.957 337.6 136.713 311.225 137.018 284.642C137.11 277.051 139.38 267.194 145.674 266.96C149.569 266.815 152.622 270.758 155.081 274.434C178.798 310.116 197.019 350.608 208.887 394" fill="#1F7A36"/>
<path d="M5.17354 298.259C30.2353 290.546 56.9042 295.792 80.4468 307.766C104.893 320.191 126.096 339.895 145.452 361.453C156.637 373.912 167.29 387.072 177.924 400.193C180.268 403.095 184.168 399.519 183.172 395.972C174.784 365.981 166.1 336.097 157.985 305.995C151.658 282.537 148.791 287.171 153.923 307.849C161.435 338.18 168.601 368.554 176.998 398.522L182.255 394.301C163.07 370.581 143.729 346.717 121.427 327.186C99.6217 308.106 74.8147 293.269 47.9374 288.435C32.9726 285.745 17.7438 286.285 3.05688 290.808C1.34781 291.331 0.490961 293.91 1.0236 295.82C1.63497 297.953 3.46447 298.783 5.17354 298.259Z" fill="#163A24"/>
<path d="M217.27 405.623C193.513 405.572 169.852 401.999 146.823 394.986C123.759 387.989 101.488 377.649 80.4977 364.193C68.7519 356.669 63.5691 356.853 50.4848 345.197C49.0953 343.938 35.432 331.274 34.1768 332.994C33.0976 334.465 40.9297 343.387 42.3701 344.645C62.0353 361.911 83.3934 376.199 105.962 387.189C128.611 398.222 152.295 405.89 176.488 410.023C190.138 412.325 203.904 413.482 217.687 413.487C221.855 413.487 221.461 405.623 217.27 405.623Z" fill="#194429"/>
<path d="M69.6736 339.294C87.8574 353.601 101.766 374.129 118.144 391.088C121.335 394.39 132.58 394.702 129.38 391.394C112.535 373.99 96.4352 353.167 77.728 338.447C76.2505 337.283 63.1198 329.425 62.3834 331.174C61.5034 333.212 68.1915 338.13 69.6736 339.294Z" fill="#194429"/>
<path d="M118.222 359.766C131.941 375.627 137.133 388.542 151.315 402.02C154.609 405.144 169.527 406.13 166.215 402.983C152.024 389.511 136.24 370.554 122.836 355.957C110.256 342.256 102.498 340.881 118.222 359.766Z" fill="#194429"/>
<path d="M53.977 249.072C53.6528 243.324 53.7408 233.077 54.2781 227.352C54.3892 226.238 54.8154 224.818 55.7463 224.912C56.5985 224.985 56.8903 226.293 56.9737 227.307C57.5017 233.712 58.0081 240.127 58.4929 246.554C62.9993 244.139 67.9278 243.081 72.8509 243.475C72.9885 243.488 73.1204 243.546 73.2327 243.642C73.3449 243.739 73.4331 243.87 73.4879 244.023C73.5426 244.175 73.5619 244.342 73.5435 244.507C73.5251 244.671 73.4698 244.826 73.3836 244.956C71.3505 247.987 68.5846 250.184 65.4681 251.244C64.3426 251.617 63.055 251.973 62.5039 253.204C62.1426 254 62.2306 254.958 62.2954 255.855C62.7423 261.412 62.571 267.016 61.786 272.518C61.7501 272.729 61.6619 272.923 61.533 273.073C61.4041 273.223 61.2405 273.322 61.0637 273.359C60.8868 273.395 60.705 273.366 60.5421 273.275C60.3793 273.185 60.2429 273.038 60.151 272.852C57.9649 268.597 58.215 262.711 56.7097 257.815C56.5821 257.247 56.3081 256.742 55.9269 256.373C55.3757 256.04 54.7454 255.947 54.1438 256.111C49.4394 256.725 44.7033 256.911 39.9756 256.668C38.6973 256.596 36.9512 255.649 37.4838 254.284C37.6789 253.879 37.9755 253.557 38.3314 253.366C40.7611 251.715 43.4359 250.652 46.2052 250.236L53.977 249.072Z" fill="#FBC8B8"/>
<path d="M279.403 78.0954C280.603 70.4822 283.613 57.1717 285.938 49.9317C286.402 48.5338 287.328 46.8519 288.537 47.3532C289.621 47.7987 289.644 49.6198 289.463 50.9732C288.327 59.5127 287.17 68.0726 285.994 76.653C292.544 75.3477 299.26 75.9863 305.558 78.5131C305.732 78.588 305.886 78.7183 306.004 78.8901C306.121 79.0618 306.198 79.2687 306.225 79.4886C306.253 79.7086 306.23 79.9334 306.16 80.1391C306.09 80.3449 305.975 80.524 305.827 80.6573C302.326 83.774 298.107 85.5043 293.752 85.6083C292.177 85.6083 290.403 85.5693 289.333 86.9449C288.643 87.8416 288.486 89.1169 288.314 90.2865C287.325 97.7043 285.516 104.93 282.937 111.773C282.831 112.032 282.662 112.247 282.453 112.39C282.243 112.532 282.003 112.595 281.763 112.57C281.523 112.545 281.295 112.434 281.109 112.251C280.923 112.068 280.787 111.822 280.719 111.544C279.074 105.106 281.061 97.5432 280.482 90.5984C280.473 89.8057 280.258 89.0365 279.866 88.3985C279.315 87.6634 278.431 87.4684 277.62 87.3236C271.323 86.2016 265.105 84.5112 259.019 82.2668C257.384 81.6486 255.37 79.6993 256.449 78.14C256.817 77.6913 257.294 77.3932 257.81 77.2879C261.447 76.129 265.238 75.8358 268.968 76.4246L279.403 78.0954Z" fill="#FBC8B8"/>
<path d="M13.9597 368.253C9.90243 372.87 10.8982 382.633 17.8549 380.294C28.1186 376.825 20.9118 360.345 13.9597 368.253Z" fill="#F7BC28"/>
<path d="M175.103 216.725C171.449 217.098 168.508 222.617 172.788 224.845C179.156 228.142 181.361 216.096 175.103 216.725Z" fill="#F7BC28"/>
<path d="M188.707 163.138C184.649 167.761 185.65 177.523 192.602 175.179C202.865 171.709 195.659 155.235 188.707 163.138Z" fill="#F7BC28"/>
</g>
<defs>
<clipPath id="clip0_1_1361">
<rect width="300" height="400" fill="white" transform="translate(0 -6)"/>
</clipPath>
</defs>
</svg>
